<?xml version="1.0" encoding="UTF-8"?>
<svg id="Capa_2" data-name="Capa 2" xmlns="http://www.w3.org/2000/svg" xmlns:xlink="http://www.w3.org/1999/xlink" viewBox="0 0 792 612">
  <defs>
    <style>
      .cls-1 {
        font-size: 10px;
      }

      .cls-1, .cls-2 {
        fill: #3c3c3b;
        font-family: SFProDisplay-Bold, 'SF Pro Display';
        font-weight: 700;
      }

      .cls-3 {
        letter-spacing: 0em;
      }

      .cls-4 {
        letter-spacing: -.04em;
      }

      .cls-5 {
        fill: none;
      }

      .cls-5, .cls-6 {
        stroke-width: 0px;
      }

      .cls-7 {
        letter-spacing: .02em;
      }

      .cls-8 {
        letter-spacing: 0em;
      }

      .cls-9 {
        letter-spacing: .02em;
      }

      .cls-10 {
        clip-path: url(#clippath);
      }

      .cls-2 {
        font-size: 24px;
      }

      .cls-11 {
        letter-spacing: .03em;
      }

      .cls-12 {
        letter-spacing: .03em;
      }

      .cls-6 {
        fill: url(#Degradado_sin_nombre_5);
      }

      .cls-13 {
        letter-spacing: .03em;
      }
    </style>
    <clipPath id="clippath">
      <rect class="cls-5" width="792" height="612"/>
    </clipPath>
    <linearGradient id="Degradado_sin_nombre_5" data-name="Degradado sin nombre 5" x1="395.37" y1="188.33" x2="395.37" y2="377.14" gradientUnits="userSpaceOnUse">
      <stop offset="0" stop-color="#00e8fa"/>
      <stop offset=".03" stop-color="#00e3f7"/>
      <stop offset="1" stop-color="#075497"/>
    </linearGradient>
  </defs>
  <g class="cls-10">
    <path class="cls-6" d="M453.91,282.73c4.81-4.21,9.14-8.44,12.9-12.6,13-14.42,17.65-26.7,13.09-34.6-6.48-11.23-28.43-9.66-53.95-.96-.98-4.98-2.12-9.72-3.41-14.14,2.52-1.78,4.17-4.72,4.17-8.05,0-5.44-4.41-9.85-9.85-9.85-.45,0-.88.03-1.31.09-4.79-8.9-10.64-14.29-17.4-14.29-12.95,0-22.56,19.74-27.79,46.14-6.08-2.08-11.94-3.73-17.45-4.9-18.99-4.05-31.95-1.94-36.51,5.96-4.56,7.9.09,20.19,13.09,34.6,3.76,4.16,8.09,8.39,12.9,12.6-4.81,4.21-9.14,8.43-12.9,12.6-3.45,3.83-6.31,7.5-8.56,10.98-.63-.13-1.28-.19-1.95-.19-5.44,0-9.85,4.41-9.85,9.85,0,3.94,2.32,7.34,5.66,8.92.2,1.83.73,3.52,1.61,5.04,3.05,5.28,9.84,7.97,19.68,7.97,4.89,0,10.53-.67,16.83-2.01,5.51-1.18,11.37-2.83,17.45-4.9,5.23,26.4,14.84,46.14,27.79,46.14s22.58-19.79,27.8-46.25c7.5,2.56,14.7,4.5,21.28,5.68.45,5.02,4.67,8.96,9.81,8.96,4.83,0,8.85-3.48,9.69-8.07,6.14-.91,10.74-3.32,13.17-7.53,4.56-7.9-.09-20.18-13.09-34.6-3.76-4.16-8.09-8.39-12.9-12.6ZM475.6,238.02c3.35,5.79-1.2,16.29-12.48,28.79-3.77,4.18-8.15,8.43-13.03,12.67-6.15-5.11-12.98-10.18-20.3-15.06-.59-8.64-1.58-17.1-2.95-25.06,25.74-8.92,44.35-8.98,48.76-1.33ZM411.8,306.37c-4.56,2.63-9.12,5.1-13.66,7.4-4.45-2.26-9-4.72-13.63-7.4-4.56-2.63-8.98-5.35-13.24-8.13-.27-4.98-.41-10.15-.41-15.5s.14-10.52.41-15.5c4.26-2.78,8.68-5.5,13.24-8.13,4.63-2.68,9.19-5.14,13.63-7.4,4.54,2.3,9.1,4.77,13.66,7.4,4.55,2.63,8.98,5.35,13.23,8.13.27,4.98.41,10.15.41,15.51s-.14,10.52-.41,15.51c-4.26,2.78-8.68,5.5-13.23,8.13ZM424.63,304.4c-.55,7.15-1.36,13.85-2.39,20.05-5.88-2.21-12.09-4.85-18.56-7.95,3.53-1.85,7.07-3.79,10.6-5.83,3.53-2.04,6.98-4.13,10.35-6.27ZM392.62,316.48c-6.31,3.01-12.54,5.67-18.56,7.92-1.02-6.18-1.84-12.87-2.39-19.99,3.36,2.14,6.82,4.23,10.35,6.27,3.49,2.01,7.03,3.95,10.6,5.81ZM366.16,294.81c-5.75-3.95-11.14-8-16.1-12.08,4.95-4.08,10.35-8.13,16.1-12.08-.18,4.02-.27,8.05-.27,12.08s.09,8.06.27,12.08ZM371.67,261.06c.55-7.13,1.36-13.81,2.39-19.99,6.03,2.25,12.25,4.91,18.56,7.92-3.57,1.85-7.11,3.79-10.6,5.8-3.53,2.04-6.99,4.13-10.35,6.27ZM403.68,248.96c6.47-3.1,12.68-5.74,18.56-7.95,1.03,6.2,1.84,12.9,2.39,20.05-3.36-2.14-6.82-4.23-10.35-6.27-3.53-2.04-7.07-3.98-10.6-5.83ZM430.14,270.65c5.75,3.95,11.14,8,16.1,12.08-4.95,4.08-10.35,8.13-16.1,12.08.18-4.02.27-8.06.27-12.08s-.09-8.06-.27-12.08ZM398.15,193.3c4.37,0,8.83,3.94,12.85,11.16-2.42,1.8-3.99,4.67-3.99,7.92,0,5.44,4.41,9.85,9.85,9.85.4,0,.79-.03,1.18-.07,1.24,4.27,2.36,8.96,3.34,14.04-7.58,2.79-15.41,6.16-23.18,9.97-7.91-3.91-15.73-7.3-23.25-10.07,5.15-26.69,14.39-42.8,23.21-42.8ZM333.18,266.81c-11.28-12.5-15.83-22.99-12.48-28.79,3.34-5.79,14.7-7.1,31.17-3.59,5.54,1.18,11.44,2.86,17.58,4.98-1.37,7.94-2.36,16.39-2.94,25-7.33,4.88-14.15,9.95-20.3,15.06-4.88-4.24-9.26-8.49-13.03-12.67ZM351.88,331.03c-16.47,3.52-27.83,2.21-31.17-3.59-.3-.52-.54-1.08-.71-1.68,4.96-.51,8.83-4.7,8.83-9.8,0-2.98-1.33-5.66-3.42-7.46,2.06-3.09,4.66-6.39,7.78-9.85,3.77-4.18,8.15-8.43,13.03-12.67,6.15,5.11,12.97,10.18,20.3,15.06.58,8.62,1.57,17.06,2.94,25-6.14,2.12-12.04,3.8-17.58,4.98ZM398.15,372.17c-8.82,0-18.06-16.11-23.21-42.8,7.52-2.77,15.34-6.16,23.25-10.07,7.77,3.81,15.6,7.19,23.18,9.98-5.14,26.75-14.39,42.9-23.23,42.9ZM475.6,327.45c-1.51,2.61-4.68,4.32-9.21,5.09-1.31-3.9-5-6.71-9.34-6.71-4.07,0-7.56,2.46-9.06,5.98-6.27-1.11-13.39-3-21.15-5.69,1.37-7.96,2.37-16.42,2.95-25.06,7.33-4.88,14.15-9.95,20.3-15.06,4.88,4.24,9.26,8.49,13.03,12.67,11.28,12.5,15.83,22.99,12.48,28.79Z"/>
    <rect class="cls-5" x="329.45" y="523.4" width="270.89" height="29.36"/>
    <polyline class="cls-5" points="548.59 401.26 548.59 430.63 277.7 430.63"/>
    <text class="cls-2" transform="translate(266.95 421.67)"><tspan class="cls-13" x="0" y="0">ONTHEPOINTSE</tspan><tspan class="cls-9" x="187.83" y="0">R</tspan><tspan class="cls-12" x="203.62" y="0">VICE</tspan></text>
    <text class="cls-1" transform="translate(275.81 435.36)"><tspan class="cls-11" x="0" y="0">DI</tspan><tspan class="cls-3" x="10.14" y="0">A</tspan><tspan class="cls-11" x="16.95" y="0">GNOSTICO Y SO</tspan><tspan class="cls-8" x="96.21" y="0">L</tspan><tspan class="cls-11" x="101.67" y="0">UCION </tspan><tspan class="cls-4" x="136.66" y="0">P</tspan><tspan class="cls-11" x="142.43" y="0">ARA TU DISPOSITI</tspan><tspan class="cls-7" x="230.95" y="0">V</tspan><tspan class="cls-11" x="237.89" y="0">O</tspan></text>
  </g>
</svg>