<?xml version="1.0" standalone="no"?>
<!DOCTYPE svg PUBLIC "-//W3C//DTD SVG 20010904//EN"
 "http://www.w3.org/TR/2001/REC-SVG-20010904/DTD/svg10.dtd">
<svg version="1.0" xmlns="http://www.w3.org/2000/svg"
 width="936.000000pt" height="980.000000pt" viewBox="0 0 936.000000 980.000000"
 preserveAspectRatio="xMidYMid meet">

<g transform="translate(0.000000,980.000000) scale(0.100000,-0.100000)"
fill="#000000" stroke="none">
<path d="M2283 5687 c-257 -240 -484 -492 -630 -697 l-75 -105 -98 -6 c-84 -4
-107 -10 -164 -38 -285 -140 -314 -531 -53 -705 51 -33 55 -38 66 -95 36 -185
194 -344 412 -414 136 -45 257 -60 464 -60 380 0 773 74 1318 247 74 23 109
30 112 23 2 -7 18 -77 35 -157 164 -761 433 -1353 726 -1594 208 -172 439
-204 653 -91 334 176 621 705 821 1515 26 107 53 228 60 268 7 39 18 72 23 72
5 0 73 -21 151 -46 182 -59 470 -135 617 -164 l117 -23 6 -43 c8 -61 59 -158
111 -209 24 -24 72 -58 107 -76 55 -29 75 -33 160 -37 114 -5 168 9 257 69 67
45 125 121 152 201 19 58 12 54 149 87 133 33 240 90 324 175 118 118 156 214
156 396 0 401 -311 886 -965 1507 l-160 153 -180 0 -180 0 -155 -123 c-153
-121 -458 -343 -485 -353 -11 -5 -12 35 -8 235 l6 241 -100 0 -100 0 -8 -283
c-4 -156 -10 -298 -14 -317 -6 -30 -21 -43 -146 -122 -258 -163 -711 -422
-908 -519 l-68 -34 -112 57 c-246 126 -691 383 -921 533 -71 46 -85 60 -90 87
-3 18 -8 160 -12 316 l-7 282 -100 0 -100 0 5 -240 c3 -132 2 -240 -2 -240
-12 0 -327 229 -493 359 l-156 121 -178 0 -178 0 -162 -153z m4976 -242 c393
-384 664 -755 762 -1045 44 -130 51 -268 19 -352 -43 -116 -158 -204 -324
-247 -44 -12 -80 -20 -81 -18 -1 1 -12 23 -24 49 -70 147 -224 236 -390 226
-140 -9 -251 -75 -327 -195 -24 -36 -39 -50 -51 -47 -10 2 -81 17 -158 34
-175 38 -356 88 -551 151 l-151 49 18 112 c41 252 99 771 99 880 0 40 4 50 28
67 15 11 117 84 227 162 188 134 353 258 525 397 l75 60 70 -62 c38 -33 144
-133 234 -221z m-4574 234 c121 -100 355 -277 540 -408 110 -78 211 -150 224
-160 23 -16 25 -26 38 -177 18 -223 40 -416 74 -649 16 -110 29 -208 29 -217
0 -32 -503 -180 -826 -242 -368 -71 -687 -80 -899 -26 -145 37 -263 117 -311
212 -13 26 -24 49 -24 51 0 3 19 7 41 11 67 11 150 56 205 111 155 154 163
395 19 563 l-36 42 31 45 c55 80 181 238 276 345 154 174 532 540 559 540 6 0
33 -19 60 -41z m1244 -869 c128 -76 320 -187 427 -245 107 -59 194 -109 194
-111 0 -12 -302 -148 -563 -253 -161 -65 -207 -80 -207 -66 0 3 -13 98 -29
212 -16 115 -37 285 -46 378 -8 94 -17 182 -19 198 -1 15 0 27 4 27 3 0 111
-63 239 -140z m1957 39 c-12 -167 -80 -715 -91 -727 -7 -8 -434 171 -699 293
l-79 36 174 95 c201 110 440 249 584 340 55 34 104 63 109 63 5 1 6 -42 2
-100z m-779 -660 c87 -39 267 -115 401 -169 134 -54 245 -100 247 -102 2 -2
-9 -66 -26 -143 -177 -837 -477 -1449 -785 -1601 -69 -35 -85 -39 -154 -39
-69 0 -85 4 -154 39 -260 128 -519 586 -695 1231 -41 150 -124 506 -119 510 2
1 89 37 195 78 202 80 446 187 653 285 l125 60 77 -39 c42 -21 148 -71 235
-110z"/>
<path d="M2274 909 c-61 -17 -59 -3 -59 -463 l0 -421 87 -3 88 -3 2 313 3 313
323 -305 c178 -168 335 -311 349 -318 34 -19 109 -17 138 2 l25 16 0 430 0
430 -90 0 -90 0 -2 -314 -3 -315 -315 305 c-173 167 -324 311 -335 318 -28 19
-84 26 -121 15z"/>
<path d="M7542 910 c-19 -4 -47 -21 -63 -36 -27 -26 -519 -797 -535 -838 -5
-14 6 -16 103 -16 l108 0 60 98 61 97 306 3 306 2 62 -100 62 -100 109 0 c60
0 109 4 109 8 0 5 -118 197 -262 427 -194 309 -271 424 -293 436 -38 21 -91
29 -133 19z m152 -373 c53 -87 96 -160 96 -162 0 -3 -92 -5 -205 -5 -113 0
-205 4 -205 8 0 8 174 297 193 320 5 7 13 9 17 5 5 -4 51 -79 104 -166z"/>
<path d="M235 889 c-75 -10 -123 -29 -159 -66 -56 -55 -60 -77 -64 -330 -4
-267 4 -326 50 -379 71 -81 172 -99 518 -91 246 5 303 15 361 64 60 51 73 98
77 286 l4 167 -206 0 -207 0 3 -77 3 -78 109 -3 109 -3 -7 -62 c-14 -124 -30
-130 -338 -125 l-228 3 -27 28 -28 27 -3 189 c-5 284 0 291 233 291 l135 0 0
85 0 85 -137 -1 c-76 -1 -165 -5 -198 -10z"/>
<path d="M1374 890 c-71 -10 -128 -36 -165 -77 -50 -55 -54 -78 -54 -353 0
-275 4 -298 54 -353 68 -74 151 -87 573 -87 l308 0 0 85 0 85 -337 0 c-252 0
-344 4 -363 13 -30 15 -49 64 -49 129 l-1 48 373 2 372 3 3 78 3 77 -376 0
-375 0 0 43 c0 23 5 59 11 80 15 57 48 67 214 67 l136 0 -3 83 -3 82 -130 1
c-71 1 -158 -2 -191 -6z"/>
<path d="M3385 888 c-3 -7 -4 -204 -3 -438 l3 -425 98 -3 97 -3 0 441 0 440
-95 0 c-67 0 -97 -4 -100 -12z"/>
<path d="M3730 567 c0 -374 5 -411 64 -470 56 -57 113 -68 357 -74 240 -6 388
6 448 37 56 28 97 80 110 140 7 31 11 177 11 375 l0 325 -95 0 -95 0 -1 -302
c0 -341 -4 -363 -59 -390 -30 -15 -65 -18 -241 -18 -222 0 -257 6 -286 48 -16
24 -18 57 -21 345 l-3 317 -95 0 -94 0 0 -333z"/>
<path d="M5008 890 c-66 -11 -113 -43 -137 -93 -41 -85 -40 -267 2 -329 12
-17 38 -41 57 -52 33 -20 55 -21 331 -26 351 -6 339 -2 339 -106 0 -99 19 -94
-402 -94 l-358 0 0 -86 0 -86 388 4 c339 4 393 7 434 22 93 35 122 101 116
261 -4 127 -23 169 -94 205 -48 25 -53 25 -342 30 -336 6 -322 1 -322 97 0 88
10 93 190 93 l150 0 0 85 0 85 -152 -1 c-84 -1 -174 -5 -200 -9z"/>
<path d="M5900 460 l0 -440 383 0 c497 1 555 9 611 83 18 24 22 46 24 135 5
127 -7 172 -52 209 l-34 27 25 19 c39 31 53 77 53 175 0 151 -44 204 -187 223
-38 4 -238 8 -445 9 l-378 0 0 -440z m809 256 c30 -27 30 -127 1 -156 -19 -19
-33 -20 -320 -20 l-300 0 0 100 0 101 299 -3 c278 -3 300 -4 320 -22z m12
-345 c25 -30 27 -141 4 -165 -25 -24 -64 -27 -355 -24 l-275 3 -3 94 c-1 52 0
101 2 108 5 12 58 14 307 11 l301 -3 19 -24z"/>
<path d="M8320 461 l0 -441 95 0 95 0 2 160 3 160 257 -160 258 -160 162 0
c143 1 161 2 144 15 -10 8 -123 74 -250 147 l-231 133 155 6 c130 5 163 10
208 29 104 45 139 124 129 290 -8 143 -46 203 -150 236 -44 15 -113 18 -464
22 l-413 4 0 -441z m811 240 c15 -18 19 -39 19 -101 0 -62 -4 -83 -19 -101
l-19 -24 -301 -3 -301 -3 0 131 0 131 301 -3 301 -3 19 -24z"/>
</g>
</svg>
